<mxfile host="65bd71144e">
    <diagram name="Page-1" id="oMn2z-YBEy4gjR6iZSlu">
        <mxGraphModel dx="754" dy="307" grid="1" gridSize="10" guides="1" tooltips="1" connect="1" arrows="1" fold="1" page="1" pageScale="1" pageWidth="827" pageHeight="1169" math="0" shadow="0">
            <root>
                <mxCell id="0"/>
                <mxCell id="1" parent="0"/>
                <mxCell id="b-uK_kvJzNk3Gi_MSdDi-3" value="" style="edgeStyle=orthogonalEdgeStyle;rounded=0;orthogonalLoop=1;jettySize=auto;html=1;" parent="1" target="b-uK_kvJzNk3Gi_MSdDi-2" edge="1">
                    <mxGeometry relative="1" as="geometry">
                        <mxPoint x="330" y="266" as="sourcePoint"/>
                    </mxGeometry>
                </mxCell>
                <mxCell id="b-uK_kvJzNk3Gi_MSdDi-6" value="" style="edgeStyle=orthogonalEdgeStyle;rounded=0;orthogonalLoop=1;jettySize=auto;html=1;" parent="1" source="b-uK_kvJzNk3Gi_MSdDi-2" target="b-uK_kvJzNk3Gi_MSdDi-5" edge="1">
                    <mxGeometry relative="1" as="geometry"/>
                </mxCell>
                <mxCell id="b-uK_kvJzNk3Gi_MSdDi-2" value="initialize game board" style="whiteSpace=wrap;html=1;" parent="1" vertex="1">
                    <mxGeometry x="270" y="356" width="120" height="60" as="geometry"/>
                </mxCell>
                <mxCell id="b-uK_kvJzNk3Gi_MSdDi-4" value="Start" style="ellipse;whiteSpace=wrap;html=1;aspect=fixed;" parent="1" vertex="1">
                    <mxGeometry x="290" y="190" width="80" height="80" as="geometry"/>
                </mxCell>
                <mxCell id="b-uK_kvJzNk3Gi_MSdDi-8" value="" style="edgeStyle=orthogonalEdgeStyle;rounded=0;orthogonalLoop=1;jettySize=auto;html=1;" parent="1" source="b-uK_kvJzNk3Gi_MSdDi-5" target="b-uK_kvJzNk3Gi_MSdDi-7" edge="1">
                    <mxGeometry relative="1" as="geometry"/>
                </mxCell>
                <mxCell id="b-uK_kvJzNk3Gi_MSdDi-5" value="set current player to &#39;X&#39;" style="whiteSpace=wrap;html=1;" parent="1" vertex="1">
                    <mxGeometry x="270" y="496" width="120" height="60" as="geometry"/>
                </mxCell>
                <mxCell id="b-uK_kvJzNk3Gi_MSdDi-10" value="" style="edgeStyle=orthogonalEdgeStyle;rounded=0;orthogonalLoop=1;jettySize=auto;html=1;" parent="1" source="b-uK_kvJzNk3Gi_MSdDi-7" target="b-uK_kvJzNk3Gi_MSdDi-9" edge="1">
                    <mxGeometry relative="1" as="geometry"/>
                </mxCell>
                <mxCell id="b-uK_kvJzNk3Gi_MSdDi-7" value="Select a space on the board" style="whiteSpace=wrap;html=1;" parent="1" vertex="1">
                    <mxGeometry x="270" y="636" width="120" height="60" as="geometry"/>
                </mxCell>
                <mxCell id="b-uK_kvJzNk3Gi_MSdDi-12" value="No" style="edgeStyle=orthogonalEdgeStyle;rounded=0;orthogonalLoop=1;jettySize=auto;html=1;" parent="1" source="b-uK_kvJzNk3Gi_MSdDi-9" target="b-uK_kvJzNk3Gi_MSdDi-11" edge="1">
                    <mxGeometry relative="1" as="geometry"/>
                </mxCell>
                <mxCell id="b-uK_kvJzNk3Gi_MSdDi-15" value="Yes" style="edgeStyle=orthogonalEdgeStyle;rounded=0;orthogonalLoop=1;jettySize=auto;html=1;" parent="1" source="b-uK_kvJzNk3Gi_MSdDi-9" target="b-uK_kvJzNk3Gi_MSdDi-14" edge="1">
                    <mxGeometry relative="1" as="geometry"/>
                </mxCell>
                <mxCell id="b-uK_kvJzNk3Gi_MSdDi-9" value="is&amp;nbsp;&lt;div data--h-bstatus=&quot;0OBSERVED&quot;&gt;the space&lt;/div&gt;&lt;div data--h-bstatus=&quot;0OBSERVED&quot;&gt;empty?&lt;/div&gt;" style="rhombus;whiteSpace=wrap;html=1;" parent="1" vertex="1">
                    <mxGeometry x="270" y="766" width="120" height="94" as="geometry"/>
                </mxCell>
                <mxCell id="b-uK_kvJzNk3Gi_MSdDi-11" value="Do Nothing" style="whiteSpace=wrap;html=1;" parent="1" vertex="1">
                    <mxGeometry x="470" y="783" width="120" height="60" as="geometry"/>
                </mxCell>
                <mxCell id="b-uK_kvJzNk3Gi_MSdDi-26" value="" style="edgeStyle=orthogonalEdgeStyle;rounded=0;orthogonalLoop=1;jettySize=auto;html=1;" parent="1" source="b-uK_kvJzNk3Gi_MSdDi-14" target="b-uK_kvJzNk3Gi_MSdDi-20" edge="1">
                    <mxGeometry relative="1" as="geometry"/>
                </mxCell>
                <mxCell id="b-uK_kvJzNk3Gi_MSdDi-14" value="place the mark in the selected space" style="whiteSpace=wrap;html=1;" parent="1" vertex="1">
                    <mxGeometry x="270" y="957" width="120" height="60" as="geometry"/>
                </mxCell>
                <mxCell id="b-uK_kvJzNk3Gi_MSdDi-22" value="Yes" style="edgeStyle=orthogonalEdgeStyle;rounded=0;orthogonalLoop=1;jettySize=auto;html=1;" parent="1" source="b-uK_kvJzNk3Gi_MSdDi-20" target="b-uK_kvJzNk3Gi_MSdDi-21" edge="1">
                    <mxGeometry relative="1" as="geometry"/>
                </mxCell>
                <mxCell id="b-uK_kvJzNk3Gi_MSdDi-24" value="No" style="edgeStyle=orthogonalEdgeStyle;rounded=0;orthogonalLoop=1;jettySize=auto;html=1;" parent="1" source="b-uK_kvJzNk3Gi_MSdDi-20" target="b-uK_kvJzNk3Gi_MSdDi-23" edge="1">
                    <mxGeometry relative="1" as="geometry"/>
                </mxCell>
                <mxCell id="b-uK_kvJzNk3Gi_MSdDi-21" value="Run the win action&lt;div data--h-bstatus=&quot;0OBSERVED&quot;&gt;-show winning message&lt;/div&gt;&lt;div data--h-bstatus=&quot;0OBSERVED&quot;&gt;-increase the score&lt;/div&gt;" style="whiteSpace=wrap;html=1;" parent="1" vertex="1">
                    <mxGeometry x="430" y="1097" width="140" height="60" as="geometry"/>
                </mxCell>
                <mxCell id="b-uK_kvJzNk3Gi_MSdDi-28" value="Yes" style="edgeStyle=orthogonalEdgeStyle;rounded=0;orthogonalLoop=1;jettySize=auto;html=1;" parent="1" source="b-uK_kvJzNk3Gi_MSdDi-23" target="b-uK_kvJzNk3Gi_MSdDi-31" edge="1">
                    <mxGeometry relative="1" as="geometry">
                        <mxPoint x="470" y="1287" as="targetPoint"/>
                    </mxGeometry>
                </mxCell>
                <mxCell id="b-uK_kvJzNk3Gi_MSdDi-30" value="" style="edgeStyle=orthogonalEdgeStyle;rounded=0;orthogonalLoop=1;jettySize=auto;html=1;" parent="1" source="b-uK_kvJzNk3Gi_MSdDi-23" target="b-uK_kvJzNk3Gi_MSdDi-29" edge="1">
                    <mxGeometry relative="1" as="geometry"/>
                </mxCell>
                <mxCell id="b-uK_kvJzNk3Gi_MSdDi-23" value="id draw ?" style="whiteSpace=wrap;html=1;" parent="1" vertex="1">
                    <mxGeometry x="270" y="1257" width="120" height="60" as="geometry"/>
                </mxCell>
                <mxCell id="b-uK_kvJzNk3Gi_MSdDi-20" value="is&amp;nbsp;&lt;div data--h-bstatus=&quot;0OBSERVED&quot;&gt;the player&amp;nbsp;&lt;/div&gt;&lt;div data--h-bstatus=&quot;0OBSERVED&quot;&gt;won?&lt;/div&gt;" style="rhombus;whiteSpace=wrap;html=1;" parent="1" vertex="1">
                    <mxGeometry x="290" y="1087" width="80" height="80" as="geometry"/>
                </mxCell>
                <mxCell id="b-uK_kvJzNk3Gi_MSdDi-32" style="edgeStyle=orthogonalEdgeStyle;rounded=0;orthogonalLoop=1;jettySize=auto;html=1;entryX=0;entryY=0.5;entryDx=0;entryDy=0;" parent="1" edge="1">
                    <mxGeometry relative="1" as="geometry">
                        <mxPoint x="270" y="1427" as="sourcePoint"/>
                        <mxPoint x="270" y="666" as="targetPoint"/>
                        <Array as="points">
                            <mxPoint x="210" y="1427"/>
                            <mxPoint x="210" y="666"/>
                        </Array>
                    </mxGeometry>
                </mxCell>
                <mxCell id="b-uK_kvJzNk3Gi_MSdDi-29" value="switch the current player" style="whiteSpace=wrap;html=1;" parent="1" vertex="1">
                    <mxGeometry x="270" y="1397" width="120" height="60" as="geometry"/>
                </mxCell>
                <mxCell id="b-uK_kvJzNk3Gi_MSdDi-31" value="Run the draw action&lt;div data--h-bstatus=&quot;0OBSERVED&quot;&gt;-show draw message&lt;/div&gt;" style="rounded=0;whiteSpace=wrap;html=1;" parent="1" vertex="1">
                    <mxGeometry x="450" y="1257" width="120" height="60" as="geometry"/>
                </mxCell>
            </root>
        </mxGraphModel>
    </diagram>
</mxfile>